<?xml version="1.0" standalone="no"?><!DOCTYPE svg PUBLIC "-//W3C//DTD SVG 1.1//EN" "http://www.w3.org/Graphics/SVG/1.1/DTD/svg11.dtd"><svg t="1514266267327" class="icon" style="" viewBox="0 0 1626 1024" version="1.1" xmlns="http://www.w3.org/2000/svg" p-id="2764" xmlns:xlink="http://www.w3.org/1999/xlink" width="50.8125" height="32"><defs><style type="text/css"></style></defs><path d="M60.235294 0h1505.882353a60.235294 60.235294 0 0 1 60.235294 60.235294v903.529412a60.235294 60.235294 0 0 1-60.235294 60.235294H60.235294a60.235294 60.235294 0 0 1-60.235294-60.235294V60.235294a60.235294 60.235294 0 0 1 60.235294-60.235294z m302.381177 222.870588c-28.912941 93.364706-74.089412 174.682353-134.927059 243.350588l20.48 65.054118c21.082353-21.684706 40.96-44.574118 59.030588-67.463529v322.861176h62.644706V369.242353c21.082353-37.948235 38.550588-77.703529 51.802353-118.663529l-59.030588-27.708236z m63.849411 128.90353v61.44h215.642353v286.117647c0 17.468235-8.432941 26.503529-24.69647 26.503529-26.503529 0-54.211765-1.807059-83.124706-4.21647l14.45647 61.44h90.352942c43.971765 0 66.258824-22.889412 66.258823-68.065883V413.214118h81.92v-61.44h-81.92V230.701176h-63.247059v121.072942h-215.642353z m64.451765 113.844706l-51.802353 31.924705c41.562353 51.802353 74.691765 99.388235 99.388235 141.552942l53.609412-37.345883c-24.094118-38.550588-57.825882-84.329412-101.195294-136.131764z m720.414118-89.750589h125.289411V251.783529h-125.289411v-24.69647H1150.494118v24.69647h-73.487059v-24.69647h-60.837647v24.69647h-131.915294v49.995295h131.915294v26.503529h-113.844706l-24.094118 121.072941h106.014118l-3.011765 3.011765c-20.48 19.877647-60.837647 36.743529-121.675294 49.995294l31.322353 48.790588c12.047059-3.011765 23.491765-6.023529 34.936471-9.637647v146.974118h62.042353v-113.844706h268.649411v113.844706h62.644706v-169.261177H983.642353c18.070588-9.637647 33.129412-19.877647 45.176471-31.322353 10.842353-11.444706 20.48-24.094118 28.310588-38.550588h93.364706v60.837647h60.837647v-60.837647h98.183529c0 7.228235-1.807059 12.649412-4.21647 17.468235-3.011765 3.614118-12.047059 5.421176-27.105883 5.421177-10.24 0-21.082353-0.602353-32.527059-1.807059l11.444706 42.767059c9.637647 0.602353 19.275294 1.204706 28.912941 1.204706 35.538824-0.602353 58.428235-7.830588 68.065883-21.082353 9.637647-13.251765 15.058824-43.369412 15.058823-90.955294h-157.81647v-26.50353z m-134.324706-74.089411h73.487059v26.503529h-73.487059v-26.503529z m134.324706 0h66.861176v26.503529h-66.861176v-26.503529z m-51.2 373.458823l-31.924706 46.983529c72.282353 16.865882 142.757647 39.755294 210.823529 68.668236l33.731765-52.404706c-63.849412-25.298824-134.927059-46.381176-212.630588-63.247059z m-71.077647-87.943529c-4.216471 50.597647-19.275294 86.136471-45.778824 107.218823-30.117647 20.48-92.16 33.129412-186.127059 36.74353l25.298824 56.621176c113.844706-8.432941 185.524706-27.708235 215.04-56.621176 27.708235-22.889412 45.778824-68.668235 54.211765-137.938824l-62.644706-6.023529z m-135.529412-211.425883h62.042353c-1.204706 8.432941-3.011765 17.468235-5.421177 26.50353h-63.849411l7.228235-26.50353z m122.88 0h74.089412v26.50353h-77.70353c1.204706-8.432941 2.409412-16.865882 3.614118-26.50353z" p-id="2765" fill="#0fc60b"></path></svg>