<?xml version="1.0" standalone="no"?><!DOCTYPE svg PUBLIC "-//W3C//DTD SVG 1.1//EN" "http://www.w3.org/Graphics/SVG/1.1/DTD/svg11.dtd"><svg t="1514268092297" class="icon" style="" viewBox="0 0 1024 1024" version="1.1" xmlns="http://www.w3.org/2000/svg" p-id="2711" xmlns:xlink="http://www.w3.org/1999/xlink" width="22" height="22"><defs><style type="text/css"></style></defs><path d="M79.872 377.856q0-27.648 9.216-39.424t40.96-11.776H261.12v512H204.8q-22.528 0-44.544-0.512t-30.208-0.512q-27.648 1.024-38.912-9.216t-11.264-38.912V642.048q0-11.264 3.584-16.896t14.848-7.68q4.096 0 11.264-3.072t14.336-9.728 12.288-17.408 5.12-26.112q0-23.552-12.8-36.864t-27.136-15.36q-11.264-2.048-16.384-6.656t-5.12-15.872V377.856z m84.992-97.28V253.952q0-20.48 15.872-37.888t34.304-17.408h141.312v81.92H164.864z m834.56 222.208q-8.192 2.048-11.776 8.704t-3.584 14.848 3.584 15.872 11.776 10.752 12.8 12.288 5.12 19.456-2.56 19.456-9.216 13.312q-20.48 12.288-20.48 27.648t20.48 30.72q4.096 3.072 7.68 11.264t3.584 16.384-4.096 14.336-14.336 6.144h-55.296q-6.144 0-6.656-1.024t1.536-3.584 5.12-5.632 5.12-7.168q5.12-14.336 0-24.576t-17.408-17.408q-8.192-4.096-11.776-12.8t-3.072-17.92 3.584-16.384 9.216-10.24q8.192-3.072 12.288-11.264t4.096-17.408-3.072-16.896-9.216-10.752q-8.192-4.096-12.8-12.288t-4.608-18.432 4.096-19.968 13.312-15.872q6.144-4.096 10.24-11.264t4.608-15.36-3.072-15.872-12.8-12.8q-10.24-5.12-14.848-14.848t-4.608-19.968 4.608-19.456 12.8-14.336q17.408-9.216 18.944-25.088t-2.56-29.184q-3.072-10.24-12.288-18.432t-23.552-8.192h-491.52v-80.896h576.512q7.168 0 12.288 5.12t6.656 12.288-1.024 14.848-9.728 12.8q-6.144 5.12-10.752 13.312t-5.12 16.896 2.56 17.408 11.264 12.8q11.264 6.144 16.896 16.896t5.632 21.504-5.632 19.968-15.872 13.312q-11.264 4.096-16.384 11.776t-5.632 16.896 4.096 17.92 14.848 14.848 14.848 16.384 4.096 20.48-5.12 18.944-13.824 9.728z m-133.12-15.36q-12.288 3.072-18.944 11.776t-7.168 17.92 5.12 18.432 16.896 13.312q10.24 4.096 15.36 12.288t5.632 17.408-3.584 17.408-12.288 12.288q-25.6 12.288-26.624 29.696T860.16 665.6q9.216 4.096 14.848 12.8t6.144 18.432-3.584 17.408-13.312 10.752q-12.288 3.072-18.944 11.264t-7.168 17.408 5.12 18.432 17.92 15.36q8.192 4.096 11.776 12.8t2.56 16.896T869.888 832t-12.8 6.656H321.536v-512h541.696q8.192 0 12.8 6.656t5.12 14.848-3.584 16.384-13.312 11.264-14.848 10.24-6.656 15.872 4.096 16.896 17.408 12.288q9.216 4.096 14.848 12.288t6.144 16.896-4.096 16.384-14.848 10.752zM619.52 556.032q-5.12 0-10.752-1.024t-2.56-6.144q1.024-2.048 9.728-14.336t19.456-26.112 19.968-26.112 11.264-15.36q5.12-8.192-6.144-19.456-2.048-2.048-8.192-6.144t-11.264-6.144q-8.192-3.072-11.776-1.024t-8.704 9.216q-2.048 3.072-10.24 14.848t-17.408 25.088T576 507.392t-8.704 12.8q-2.048 4.096-7.68 3.072t-7.68-5.12q-1.024-2.048-9.216-11.776t-17.408-22.016-17.92-23.04-11.776-14.848Q486.4 429.056 476.16 435.2q-7.168 4.096-12.8 8.704t-10.752 7.68q-10.24 7.168-3.072 18.432 17.408 20.48 30.72 37.888 11.264 14.336 21.504 27.648t12.288 15.36q2.048 4.096-4.096 4.096h-12.288q-5.12 0-14.848 0.512t-17.92-0.512q-8.192 0-13.312 4.096t-3.072 10.24q1.024 4.096 1.024 12.288v12.288q0 5.12 3.072 5.632t7.168 0.512h59.392q12.288 0 12.288 5.12v19.456q0 5.12-2.048 5.12H460.8q-6.144-1.024-8.192 3.072t-3.072 9.216 0 9.728 1.024 7.68q0 13.312 13.312 13.312h61.44q5.12 0 6.144 1.536t1.024 6.656q1.024 5.12 0.512 18.432t-0.512 17.408q0 11.264 13.312 11.264h32.768q8.192 0 8.192-5.12v-40.96q0-10.24 9.216-10.24h9.216q7.168 0 15.872-0.512t16.896-0.512h13.312q14.336 0 14.336-10.24v-22.528q0-9.216-10.24-9.216h-59.392q-10.24 2.048-10.24-4.096 0-3.072-0.512-7.68t-0.512-8.704 3.584-6.144 7.68-2.048h60.416q10.24 0 10.24-7.168V568.32q0-4.096-3.584-8.192t-8.704-4.096H619.52z" p-id="2712" fill="#75d4f6"></path></svg>