<?xml version="1.0" standalone="no"?><!DOCTYPE svg PUBLIC "-//W3C//DTD SVG 1.1//EN" "http://www.w3.org/Graphics/SVG/1.1/DTD/svg11.dtd"><svg t="1514473283951" class="icon" style="" viewBox="0 0 1639 1024" version="1.1" xmlns="http://www.w3.org/2000/svg" p-id="2322" xmlns:xlink="http://www.w3.org/1999/xlink" width="32.01171875" height="20"><defs><style type="text/css"></style></defs><path d="M824.666 886.969c264.348 0 622.908-281.377 647.82-358.733-9.72-84.743-347.183-391.205-647.82-391.205-285.983 0-648 244.104-648.036 393.080 7.524 73.382 354.924 356.858 648.036 356.858v0zM824.666 962c-300.311 0-720-294.388-720-431.251 0-216.881 422.208-468.749 720-468.749 325.872 0 720 329.859 720 468.749 0 115.566-430.776 431.251-720 431.251v0 0 0zM824.666 699.485c99.217 0 180-84.143 180-187.485s-80.783-187.485-180-187.485c-99.217 0-180 84.143-180 187.485 0 103.342 80.783 187.485 180 187.485v0zM824.666 774.515c-139.212 0-252.036-117.515-252.036-262.515s112.824-262.515 252.036-262.515c139.212 0 252.036 117.515 252.036 262.515 0 145-112.824 262.515-252.036 262.515v0 0 0z" p-id="2323" fill="#ffffff"></path></svg>