<?xml version="1.0" standalone="no"?><!DOCTYPE svg PUBLIC "-//W3C//DTD SVG 1.1//EN" "http://www.w3.org/Graphics/SVG/1.1/DTD/svg11.dtd"><svg t="1515134918834" class="icon" style="" viewBox="0 0 1024 1024" version="1.1" xmlns="http://www.w3.org/2000/svg" p-id="8545" xmlns:xlink="http://www.w3.org/1999/xlink" width="20" height="20"><defs><style type="text/css"></style></defs><path d="M514.99746401 32.45995739c131.50011925 0 250.06580048 53.35455664 336.29538685 139.58414297 86.22958634 86.22958634 139.58414291 205.33420253 139.58414293 336.29538691 0 131.50011925-53.35455664 250.06580048-139.58414293 336.29538684-86.22958634 86.22958634-205.33420253 139.58414291-336.29538685 139.58414293-131.50011925 0-250.60473548-53.35455664-336.29538684-139.58414293-86.22958634-86.22958634-139.58414291-205.33420253-139.58414305-336.29538684 0-131.50011925 53.35455664-250.60473548 139.58414305-336.29538691 86.22958634-86.22958634 205.33420253-139.58414291 336.29538684-139.58414297z m302.88142218 173.53704261c-77.60662772-77.60662772-184.31574091-125.57183512-302.88142218-125.57183513-118.02674632 0-225.27479442 47.96520744-302.88142209 125.57183513s-125.57183512 184.31574091-125.57183529 302.88142215c0 118.02674632 47.96520744 225.27479442 125.57183529 302.88142217 77.60662772 77.60662772 184.31574091 125.57183512 302.88142209 125.57183505 118.02674632 0 225.27479442-47.96520744 302.88142218-125.57183505 77.60662772-77.60662772 125.57183512-184.31574091 125.57183509-302.88142217s-47.96520744-225.81372932-125.57183509-302.88142215z" p-id="8546" fill="#808080"></path><path d="M341.99935636 495.94398418h346.53515023v32.87502982h-346.53515023V495.94398418z m-45.27053286 74.91195317H728.95462523v33.41396468h-190.24402497V706.12860101c0 25.86887592-14.01230776 38.80331388-42.57585825 38.80331383h-49.04307732l-7.0061538-33.41396471c17.24591725 1.6168047 31.79715992 2.69467457 44.73159787 2.69467455 11.31763318 0 16.70698238-5.38934916 16.70698236-16.16804743v-93.23574025h-204.79526762v-33.95289965z m322.28307908 59.82177554c38.80331388 22.09633149 74.91195321 50.12094706 108.32591791 82.99597694l-20.47952679 31.25822501c-35.03076944-37.18650914-70.60047384-65.75005951-106.17017828-86.22958638l18.32378716-28.02461557z m-197.7891138 22.09633158c-27.48568066 33.95289968-61.43858029 64.13325484-101.8586989 90.00213073l-22.63526638-29.10248537c39.88118367-23.71313622 72.75621349-51.73775174 99.16402429-82.99597694l25.32994099 22.09633158z m-123.9550304-334.13964719h90.00213079v-46.34840281h36.64757419v46.34840281h77.60662776v33.41396465h-77.60662776v9.16189365c22.63526646 13.47337282 46.34840268 29.10248546 71.13940884 47.42627238l-19.401657 29.64142032c-19.94059188-21.55739655-37.18650914-38.80331388-51.19881686-51.19881689v88.92426098h-36.64757426v-92.69680535c-21.01846167 33.41396467-46.34840268 62.51645014-75.98982297 87.3074562l-20.47952682-30.18035522c37.18650914-24.79100613 67.36686431-53.89349149 90.54106569-88.38532607h-83.53491178v-33.41396465h-1.07786982z m226.35266426 0h74.91195316v-46.88733764h36.64757424v46.88733764h92.69680532v33.41396465H653.50373709c17.78485223 32.87502981 46.88733757 61.97751523 86.76852131 87.30745618l-23.71313617 29.64142027c-37.72544407-33.41396467-64.67218974-68.98366906-81.37917219-107.24804795v114.79313678h-36.64757424v-112.09846225c-21.01846167 44.73159799-46.88733757 80.8402372-77.60662778 109.40378772l-20.47952665-30.71929017c33.41396467-25.32994097 60.36071044-55.51029622 81.37917207-91.08000058h-58.2049708v-33.41396465z" p-id="8547" fill="#808080"></path></svg>