<?xml version="1.0" standalone="no"?><!DOCTYPE svg PUBLIC "-//W3C//DTD SVG 1.1//EN" "http://www.w3.org/Graphics/SVG/1.1/DTD/svg11.dtd"><svg t="1514206383057" class="icon" style="" viewBox="0 0 1024 1024" version="1.1" xmlns="http://www.w3.org/2000/svg" p-id="3330" xmlns:xlink="http://www.w3.org/1999/xlink" width="45" height="45"><defs><style type="text/css"></style></defs><path d="M286.72 546.133333h-3.413333 3.413333z m556.373333 221.866667c0-3.413333 0 0 0 0z m37.546667-409.6z m-37.546667 0z" fill="" p-id="3331"></path><path d="M505.173333 634.88c-85.333333 0-167.253333 37.546667-225.28 95.573333-47.786667 47.786667-81.92 109.226667-92.16 177.493334C276.48 979.626667 389.12 1024 512 1024c116.053333 0 225.28-40.96 310.613333-105.813333-10.24-71.68-44.373333-136.533333-95.573333-187.733334-58.026667-58.026667-136.533333-95.573333-221.866667-95.573333zM689.493333 457.386667s0-3.413333 0 0c3.413333-17.066667 6.826667-30.72 6.826667-44.373334s-3.413333-27.306667-3.413333-40.96v-3.413333c-20.48-81.92-98.986667-146.773333-184.32-146.773333-85.333333 0-160.426667 64.853333-184.32 146.773333v3.413333c-3.413333 13.653333-3.413333 27.306667-3.413334 40.96 0 13.653333 3.413333 27.306667 3.413334 40.96v3.413334c20.48 78.506667 95.573333 136.533333 180.906666 139.946666h3.413334c81.92-3.413333 160.426667-61.44 180.906666-139.946666z" fill="#F2F2F2" p-id="3332"></path><path d="M512 0C228.693333 0 0 228.693333 0 512c0 139.946667 58.026667 269.653333 150.186667 361.813333 6.826667-27.306667 13.653333-51.2 27.306666-75.093333l10.24-20.48c17.066667-27.306667 37.546667-51.2 61.44-75.093333 6.826667-3.413333 10.24-10.24 17.066667-13.653334 37.546667-34.133333 81.92-58.026667 129.706667-75.093333-10.24-3.413333-17.066667-10.24-23.893334-17.066667-10.24-6.826667-17.066667-13.653333-27.306666-23.893333-44.373333-44.373333-68.266667-98.986667-68.266667-160.426667s23.893333-119.466667 68.266667-160.426666c40.96-40.96 98.986667-64.853333 157.013333-68.266667h6.826667c58.026667 0 116.053333 23.893333 157.013333 68.266667 44.373333 44.373333 68.266667 98.986667 68.266667 160.426666s-23.893333 119.466667-68.266667 160.426667c-6.826667 6.826667-17.066667 17.066667-27.306667 23.893333-6.826667 6.826667-17.066667 10.24-23.893333 17.066667 47.786667 13.653333 92.16 40.96 129.706667 75.093333 6.826667 3.413333 10.24 10.24 17.066666 13.653334 23.893333 23.893333 44.373333 47.786667 61.44 78.506666l10.24 20.48c13.653333 27.306667 23.893333 54.613333 30.72 85.333334 98.986667-95.573333 160.426667-228.693333 160.426667-375.466667 0-283.306667-228.693333-512-512-512z" fill="#F2F2F2" p-id="3333"></path></svg>